<?xml version="1.0" encoding="UTF-8"?>
<svg id="logo" xmlns="http://www.w3.org/2000/svg" viewBox="0 0 2501 1001">
  <defs>
    <style>
      .cls-1 {
        fill: #fff;
        stroke-width: 0px;
      }
    </style>
  </defs>
  <g id="Asyntes">
    <g>
      <path class="cls-1" d="m942.08,491.34c-.47-23.08-16.02-34.39-47.57-34.39-23.08,0-38.15,9.42-38.15,23.55,0,10.36,4.71,14.13,23.08,19.78l83.37,24.02c33.44,9.89,49.93,31.09,49.93,64.06,0,24.96-11.3,48.52-30.15,63.59-18.84,15.07-45.69,22.61-81.02,22.61-77.25,0-118.23-28.73-120.11-84.79h64.53c2.83,13.66,5.65,18.84,12.72,24.02,8.48,6.12,21.67,8.95,39.1,8.95,30.62,0,48.99-9.42,48.99-24.96,0-10.36-5.65-15.54-22.14-20.73l-78.66-24.49c-24.49-8.01-32.5-12.25-41.45-21.2-8.95-9.89-14.13-24.49-14.13-41.45,0-52.29,40.04-84.79,104.57-84.79,68.3,0,109.75,32.5,110.69,86.2h-63.59Z"/>
      <path class="cls-1" d="m1275.1,409.38l-104.57,300.99c-10.83,30.62-18.84,40.98-37.21,48.52-11.78,4.71-30.62,8.01-47.57,8.01-8.01,0-13.66-.47-23.55-1.88v-49.46c8.01,1.88,12.25,2.83,17.43,2.83,24.49,0,40.98-17.9,40.98-44.28l-94.68-264.72h72.54l56.05,185.12,52.76-185.12h67.83Z"/>
      <path class="cls-1" d="m1379.2,409.38v36.74c18.84-28.73,41.92-40.98,76.31-40.98,54.64,0,85.26,31.56,85.26,88.08v170.52h-65.95v-156.86c0-30.15-14.13-45.69-42.39-45.69-32.5,0-53.23,19.78-53.23,49.93v152.62h-65.95v-254.36h65.95Z"/>
      <path class="cls-1" d="m1713.17,458.37h-36.74v138.49c0,22.61,4.24,27.79,21.67,27.79,5.18,0,8.48-.47,15.07-1.41v46.16c-12.25,3.77-23.08,5.18-38.15,5.18-43.34,0-64.53-19.78-64.53-59.82v-156.38h-32.5v-43.81h32.5v-68.3h65.95v68.3h36.74v43.81Z"/>
      <path class="cls-1" d="m1802.67,557.29c.94,24.02,3.3,35.33,9.42,44.75,9.42,14.13,24.49,22.14,43.33,22.14,24.02,0,42.39-11.78,50.4-32.03h65c-14.6,50.4-60.76,82.43-117.76,82.43-72.07,0-116.35-49.93-116.35-131.42s44.75-138.01,117.76-138.01c51.34,0,92.32,27.79,109.28,73.95,6.12,17.9,9.89,41.45,9.89,66.89,0,3.3,0,5.65-.47,11.3h-170.52Zm102.21-43.81c-3.3-37.68-21.2-57.94-51.34-57.94s-45.69,18.84-49.93,57.94h101.27Z"/>
      <path class="cls-1" d="m2164.42,491.34c-.47-23.08-16.02-34.39-47.58-34.39-23.08,0-38.15,9.42-38.15,23.55,0,10.36,4.71,14.13,23.08,19.78l83.37,24.02c33.44,9.89,49.93,31.09,49.93,64.06,0,24.96-11.3,48.52-30.15,63.59s-45.69,22.61-81.02,22.61c-77.25,0-118.23-28.73-120.12-84.79h64.53c2.83,13.66,5.65,18.84,12.72,24.02,8.48,6.12,21.67,8.95,39.1,8.95,30.62,0,48.99-9.42,48.99-24.96,0-10.36-5.65-15.54-22.14-20.73l-78.66-24.49c-24.49-8.01-32.5-12.25-41.45-21.2-8.95-9.89-14.13-24.49-14.13-41.45,0-52.29,40.04-84.79,104.57-84.79,68.3,0,109.75,32.5,110.69,86.2h-63.59Z"/>
    </g>
    <polygon class="cls-1" points="514.75 234.1 265.92 665.09 617.82 665.09 581.39 601.99 375.23 601.99 514.75 360.32 654.28 601.99 654.26 601.99 690.69 665.09 700.71 665.09 763.59 665.09 514.75 234.1"/>
  </g>
</svg>