<?xml version="1.0" encoding="UTF-8"?>
<svg id="logo" xmlns="http://www.w3.org/2000/svg" viewBox="0 0 2501 1001">
  <defs>
    <style>
      .cls-1 {
        fill: #fff;
        stroke-width: 0px;
      }
    </style>
  </defs>
  <g id="Asyntes">
    <path class="cls-1" d="m855.1,586.1c1.37,11.52,4.34,19.7,8.91,24.55,8.07,8.64,22.99,12.96,44.76,12.96,12.79,0,22.95-1.89,30.49-5.68,7.54-3.79,11.3-9.47,11.3-17.05s-3.04-12.8-9.11-16.59c-6.07-3.79-28.66-10.3-67.77-19.55-28.15-6.97-47.99-15.68-59.5-26.14-11.52-10.3-17.27-25.15-17.27-44.55,0-22.88,9-42.54,26.99-58.98,18-16.44,43.32-24.66,75.97-24.66s56.22,6.18,75.74,18.52c19.51,12.35,30.71,33.68,33.6,63.98h-64.78c-.91-8.33-3.27-14.92-7.06-19.77-7.15-8.79-19.3-13.18-36.47-13.18-14.13,0-24.2,2.2-30.2,6.59-6,4.4-9,9.55-9,15.46,0,7.43,3.19,12.81,9.57,16.14,6.38,3.49,28.92,9.47,67.63,17.96,25.8,6.06,45.15,15.23,58.03,27.5,12.73,12.43,19.09,27.96,19.09,46.59,0,24.55-9.15,44.59-27.45,60.12s-46.57,23.3-84.83,23.3-67.83-8.22-86.43-24.66c-18.6-16.44-27.9-37.39-27.9-62.85h65.69Z"/>
    <path class="cls-1" d="m1073.52,712.71l8.18.45c6.36.3,12.42.07,18.18-.68,5.76-.76,10.61-2.5,14.55-5.23,3.79-2.58,7.31-7.96,10.57-16.14,3.26-8.18,4.66-13.18,4.21-15l-91.03-258.66h72.05l54.1,182.74,51.14-182.74h68.87l-84.94,243.66c-16.41,46.97-29.4,76.1-38.96,87.39-9.56,11.29-28.67,16.93-57.34,16.93-5.76,0-10.39-.04-13.88-.11-3.49-.08-8.73-.34-15.7-.8v-51.82Z"/>
    <path class="cls-1" d="m1522.42,431.66c16.22,13.41,24.33,35.65,24.33,66.71v166.83h-66.37v-150.69c0-13.03-1.73-23.03-5.19-30-6.32-12.73-18.35-19.09-36.1-19.09-21.81,0-36.78,9.32-44.9,27.96-4.21,9.85-6.32,22.43-6.32,37.73v134.1h-64.78v-247.29h62.73v36.14c8.3-12.73,16.15-21.89,23.54-27.5,13.28-10,30.1-15,50.47-15,25.5,0,46.36,6.71,62.58,20.12Z"/>
    <path class="cls-1" d="m1581.52,465.87v-46.14h34.55v-69.1h64.1v69.1h40.23v46.14h-40.23v130.92c0,10.15,1.29,16.48,3.86,18.98,2.58,2.5,10.46,3.75,23.64,3.75,1.97,0,4.05-.03,6.25-.11,2.2-.07,4.35-.19,6.48-.34v48.41l-30.68,1.14c-30.61,1.06-51.52-4.24-62.73-15.91-7.27-7.42-10.91-18.87-10.91-34.32v-152.51h-34.55Z"/>
    <path class="cls-1" d="m1923.44,422.47c17.28,7.74,31.55,19.96,42.81,36.65,10.15,14.72,16.73,31.79,19.74,51.22,1.74,11.38,2.45,27.77,2.13,49.17h-180.44c1.01,24.85,9.64,42.28,25.91,52.28,9.89,6.22,21.8,9.32,35.72,9.32,14.76,0,26.75-3.79,35.97-11.36,5.03-4.09,9.48-9.77,13.33-17.05h66.14c-1.74,14.7-9.75,29.63-24.01,44.78-22.19,24.09-53.26,36.14-93.21,36.14-32.97,0-62.06-10.16-87.27-30.48s-37.81-53.39-37.81-99.19c0-42.91,11.38-75.83,34.13-98.73,22.75-22.9,52.28-34.35,88.59-34.35,21.56,0,40.98,3.87,58.27,11.61Zm-96.91,55.96c-9.16,9.44-14.91,22.22-17.26,38.35h111.6c-1.18-17.2-6.93-30.24-17.26-39.15-10.33-8.9-23.13-13.36-38.42-13.36-16.63,0-29.52,4.72-38.67,14.16Z"/>
    <path class="cls-1" d="m2071.11,586.1c1.37,11.52,4.34,19.7,8.91,24.55,8.07,8.64,22.99,12.96,44.76,12.96,12.79,0,22.95-1.89,30.49-5.68,7.54-3.79,11.3-9.47,11.3-17.05s-3.04-12.8-9.11-16.59c-6.07-3.79-28.66-10.3-67.77-19.55-28.15-6.97-47.99-15.68-59.5-26.14-11.52-10.3-17.27-25.15-17.27-44.55,0-22.88,9-42.54,26.99-58.98,18-16.44,43.32-24.66,75.97-24.66s56.22,6.18,75.74,18.52c19.51,12.35,30.71,33.68,33.6,63.98h-64.78c-.91-8.33-3.27-14.92-7.06-19.77-7.15-8.79-19.3-13.18-36.47-13.18-14.13,0-24.2,2.2-30.2,6.59-6,4.4-9,9.55-9,15.46,0,7.43,3.19,12.81,9.57,16.14,6.38,3.49,28.92,9.47,67.63,17.96,25.8,6.06,45.15,15.23,58.03,27.5,12.73,12.43,19.09,27.96,19.09,46.59,0,24.55-9.15,44.59-27.45,60.12-18.3,15.53-46.57,23.3-84.83,23.3s-67.83-8.22-86.43-24.66c-18.6-16.44-27.9-37.39-27.9-62.85h65.69Z"/>
    <path id="triangle" class="cls-1" d="m766.63,666.55h-497.67l248.83-430.99,248.83,430.99Zm-388.36-63.11h279.06l-139.53-241.67-139.53,241.67Z"/>
  </g>
</svg>